<svg width="25" height="25" fill="none" xmlns="http://www.w3.org/2000/svg"><path d="M10.71 8.326a1.866 1.866 0 103.733 0 1.866 1.866 0 00-3.732 0z" fill="#999"/><path fill-rule="evenodd" clip-rule="evenodd" d="M12.5 25C19.404 25 25 19.404 25 12.5S19.404 0 12.5 0 0 5.596 0 12.5 5.596 25 12.5 25zM8.063 8.325a4.514 4.514 0 119.028 0 4.514 4.514 0 01-9.028 0zm9.055 6.837c-.058.046-1.14.901-2.948 1.27l2.728 2.703a1.227 1.227 0 11-1.734 1.737l-2.649-2.579-2.405 2.563a1.223 1.223 0 01-1.736.031 1.227 1.227 0 01-.031-1.735l2.589-2.706c-1.858-.36-2.985-1.238-3.043-1.284a1.228 1.228 0 011.535-1.916c.011.01 1.19.896 3.091.897 1.9-.001 3.056-.887 3.067-.897a1.227 1.227 0 011.536 1.916z" fill="#999"/></svg>